{
  "accessors": [
    {
      "bufferView": 2,
      "componentType": 5126,
      "count": 192,
      "max": [
        0.020238935947418213,
        0.08398750424385071,
        0.15309321880340576
      ],
      "min": [
        -0.0243341326713562,
        -0.08398762345314026,
        0.09477055072784424
      ],
      "type": "VEC3"
    },
    {
      "bufferView": 2,
      "byteOffset": 2304,
      "componentType": 5126,
      "count": 192,
      "max": [
        1.0,
        0.9719327688217163,
        1.0
      ],
      "min": [
        -1.0,
        -0.9719332456588745,
        -1.0
      ],
      "type": "VEC3"
    },
    {
      "bufferView": 1,
      "componentType": 5126,
      "count": 192,
      "max": [
        1.0,
        1.0
      ],
      "min": [
        0.0,
        0.0
      ],
      "type": "VEC2"
    },
    {
      "bufferView": 0,
      "componentType": 5125,
      "count": 504,
      "type": "SCALAR"
    },
    {
      "bufferView": 2,
      "byteOffset": 4608,
      "componentType": 5126,
      "count": 7532,
      "max": [
        0.010272204875946045,
        0.15562981367111206,
        0.15562963485717773
      ],
      "min": [
        -0.010272324085235596,
        -0.15562982857227325,
        -0.15562963485717773
      ],
      "type": "VEC3"
    },
    {
      "bufferView": 2,
      "byteOffset": 94992,
      "componentType": 5126,
      "count": 7532,
      "max": [
        1.0,
        1.0,
        1.0
      ],
      "min": [
        -1.0,
        -1.0,
        -1.0
      ],
      "type": "VEC3"
    },
    {
      "bufferView": 1,
      "byteOffset": 1536,
      "componentType": 5126,
      "count": 7532,
      "max": [
        1.0000100135803223,
        0.9634523391723633
      ],
      "min": [
        1.4668330550193787e-08,
        0.03654837608337402
      ],
      "type": "VEC2"
    },
    {
      "bufferView": 0,
      "byteOffset": 2016,
      "componentType": 5125,
      "count": 21624,
      "type": "SCALAR"
    },
    {
      "bufferView": 2,
      "byteOffset": 185376,
      "componentType": 5126,
      "count": 7528,
      "max": [
        0.010272204875946045,
        0.15551799535751343,
        0.15551793575286865
      ],
      "min": [
        -0.010272324085235596,
        -0.15551796555519104,
        -0.1555178165435791
      ],
      "type": "VEC3"
    },
    {
      "bufferView": 2,
      "byteOffset": 275712,
      "componentType": 5126,
      "count": 7528,
      "max": [
        1.0,
        0.9999845623970032,
        0.9999850988388062
      ],
      "min": [
        -1.0,
        -0.9999854564666748,
        -0.99998539686203
      ],
      "type": "VEC3"
    },
    {
      "bufferView": 1,
      "byteOffset": 61792,
      "componentType": 5126,
      "count": 7528,
      "max": [
        0.9976783394813538,
        0.6784752011299133
      ],
      "min": [
        0.002331770258024335,
        0.35023176670074463
      ],
      "type": "VEC2"
    },
    {
      "bufferView": 0,
      "byteOffset": 88512,
      "componentType": 5125,
      "count": 20664,
      "type": "SCALAR"
    },
    {
      "bufferView": 2,
      "byteOffset": 366048,
      "componentType": 5126,
      "count": 926,
      "max": [
        0.010272204875946045,
        0.09574294090270996,
        0.09574317932128906
      ],
      "min": [
        -0.09158074855804443,
        -0.09574288129806519,
        -0.09574294090270996
      ],
      "type": "VEC3"
    },
    {
      "bufferView": 2,
      "byteOffset": 377160,
      "componentType": 5126,
      "count": 926,
      "max": [
        1.0,
        1.0,
        1.0
      ],
      "min": [
        -1.0,
        -1.0,
        -1.0
      ],
      "type": "VEC3"
    },
    {
      "bufferView": 1,
      "byteOffset": 122016,
      "componentType": 5126,
      "count": 926,
      "max": [
        1.0,
        1.0
      ],
      "min": [
        0.0,
        0.0
      ],
      "type": "VEC2"
    },
    {
      "bufferView": 0,
      "byteOffset": 171168,
      "componentType": 5125,
      "count": 2676,
      "type": "SCALAR"
    },
    {
      "bufferView": 2,
      "byteOffset": 388272,
      "componentType": 5126,
      "count": 816,
      "max": [
        0.03222709894180298,
        0.15165036916732788,
        0.1785362958908081
      ],
      "min": [
        -0.04240900278091431,
        -0.15165048837661743,
        0.08368587493896484
      ],
      "type": "VEC3"
    },
    {
      "bufferView": 2,
      "byteOffset": 398064,
      "componentType": 5126,
      "count": 816,
      "max": [
        1.0,
        1.0,
        1.0
      ],
      "min": [
        -1.0,
        -1.0,
        -1.0
      ],
      "type": "VEC3"
    },
    {
      "bufferView": 1,
      "byteOffset": 129424,
      "componentType": 5126,
      "count": 816,
      "max": [
        1.0,
        1.0
      ],
      "min": [
        0.0,
        0.0
      ],
      "type": "VEC2"
    },
    {
      "bufferView": 0,
      "byteOffset": 181872,
      "componentType": 5125,
      "count": 1692,
      "type": "SCALAR"
    },
    {
      "bufferView": 2,
      "byteOffset": 407856,
      "componentType": 5126,
      "count": 1120,
      "max": [
        0.03222709894180298,
        0.16218918561935425,
        0.1700533628463745
      ],
      "min": [
        -0.046876370906829834,
        -0.16218911111354828,
        0.09563064575195313
      ],
      "type": "VEC3"
    },
    {
      "bufferView": 2,
      "byteOffset": 421296,
      "componentType": 5126,
      "count": 1120,
      "max": [
        1.0,
        1.0,
        1.0
      ],
      "min": [
        -1.0,
        -1.0,
        -1.0
      ],
      "type": "VEC3"
    },
    {
      "bufferView": 1,
      "byteOffset": 135952,
      "componentType": 5126,
      "count": 1120,
      "max": [
        1.0,
        0.9752514362335205
      ],
      "min": [
        0.0,
        0.2826235592365265
      ],
      "type": "VEC2"
    },
    {
      "bufferView": 0,
      "byteOffset": 188640,
      "componentType": 5125,
      "count": 3528,
      "type": "SCALAR"
    }
  ],
  "asset": {
    "extras": {
      "author": "Joko_P (https://sketchfab.com/joko_p)",
      "license": "CC-BY-4.0 (http://creativecommons.org/licenses/by/4.0/)",
      "source": "https://sketchfab.com/3d-models/car-disc-brake-9e2440a2fa624b31abd0963902217407",
      "title": "Car Disc Brake"
    },
    "generator": "Sketchfab-12.66.0",
    "version": "2.0"
  },
  "bufferViews": [
    {
      "buffer": 0,
      "byteLength": 202752,
      "name": "floatBufferViews",
      "target": 34963
    },
    {
      "buffer": 0,
      "byteLength": 144912,
      "byteOffset": 202752,
      "byteStride": 8,
      "name": "floatBufferViews",
      "target": 34962
    },
    {
      "buffer": 0,
      "byteLength": 434736,
      "byteOffset": 347664,
      "byteStride": 12,
      "name": "floatBufferViews",
      "target": 34962
    }
  ],
  "buffers": [
    {
      "byteLength": 782400,
      "uri": "scene.bin"
    }
  ],
  "images": [
    {
      "uri": "textures/Brake_Disc_baseColor.png"
    },
    {
      "uri": "textures/Brake_Disc_metallicRoughness.png"
    },
    {
      "uri": "textures/Dark_Brake_baseColor.png"
    },
    {
      "uri": "textures/Dark_Brake_metallicRoughness.png"
    },
    {
      "uri": "textures/Red_Brake_metallicRoughness.png"
    }
  ],
  "materials": [
    {
      "doubleSided": true,
      "name": "Brake_Pad",
      "pbrMetallicRoughness": {
        "baseColorFactor": [
          0.025191469456802472,
          0.025191469456802472,
          0.025191469456802472,
          1.0
        ],
        "metallicFactor": 0.0,
        "roughnessFactor": 0.75
      }
    },
    {
      "doubleSided": true,
      "name": "Brake_Disc",
      "pbrMetallicRoughness": {
        "baseColorTexture": {
          "index": 0
        },
        "metallicRoughnessTexture": {
          "index": 1
        },
        "roughnessFactor": 0.5
      }
    },
    {
      "doubleSided": true,
      "name": "Brake_Vent_Dark",
      "pbrMetallicRoughness": {
        "baseColorFactor": [
          0.0,
          0.0,
          0.0,
          1.0
        ],
        "metallicFactor": 0.0
      }
    },
    {
      "doubleSided": true,
      "name": "Dark_Brake",
      "pbrMetallicRoughness": {
        "baseColorTexture": {
          "index": 2
        },
        "metallicFactor": 0.75,
        "metallicRoughnessTexture": {
          "index": 3
        },
        "roughnessFactor": 0.5
      }
    },
    {
      "doubleSided": true,
      "name": "Red_Brake",
      "pbrMetallicRoughness": {
        "baseColorFactor": [
          0.658375,
          0.0,
          0.0,
          1.0
        ],
        "metallicFactor": 0.5,
        "metallicRoughnessTexture": {
          "index": 4
        },
        "roughnessFactor": 0.5
      }
    },
    {
      "doubleSided": true,
      "name": "Brake_Lines",
      "pbrMetallicRoughness": {
        "baseColorFactor": [
          0.250158,
          0.250158,
          0.250158,
          1.0
        ],
        "roughnessFactor": 0.2
      }
    }
  ],
  "meshes": [
    {
      "name": "Object_0",
      "primitives": [
        {
          "attributes": {
            "NORMAL": 1,
            "POSITION": 0,
            "TEXCOORD_0": 2
          },
          "indices": 3,
          "material": 0,
          "mode": 4
        }
      ]
    },
    {
      "name": "Object_1",
      "primitives": [
        {
          "attributes": {
            "NORMAL": 5,
            "POSITION": 4,
            "TEXCOORD_0": 6
          },
          "indices": 7,
          "material": 1,
          "mode": 4
        }
      ]
    },
    {
      "name": "Object_2",
      "primitives": [
        {
          "attributes": {
            "NORMAL": 9,
            "POSITION": 8,
            "TEXCOORD_0": 10
          },
          "indices": 11,
          "material": 2,
          "mode": 4
        }
      ]
    },
    {
      "name": "Object_3",
      "primitives": [
        {
          "attributes": {
            "NORMAL": 13,
            "POSITION": 12,
            "TEXCOORD_0": 14
          },
          "indices": 15,
          "material": 3,
          "mode": 4
        }
      ]
    },
    {
      "name": "Object_4",
      "primitives": [
        {
          "attributes": {
            "NORMAL": 17,
            "POSITION": 16,
            "TEXCOORD_0": 18
          },
          "indices": 19,
          "material": 4,
          "mode": 4
        }
      ]
    },
    {
      "name": "Object_5",
      "primitives": [
        {
          "attributes": {
            "NORMAL": 21,
            "POSITION": 20,
            "TEXCOORD_0": 22
          },
          "indices": 23,
          "material": 5,
          "mode": 4
        }
      ]
    }
  ],
  "nodes": [
    {
      "children": [
        1
      ],
      "matrix": [
        1.0,
        0.0,
        0.0,
        0.0,
        0.0,
        2.220446049250313e-16,
        -1.0,
        0.0,
        0.0,
        1.0,
        2.220446049250313e-16,
        0.0,
        0.0,
        0.0,
        0.0,
        1.0
      ],
      "name": "Sketchfab_model"
    },
    {
      "children": [
        2
      ],
      "name": "root"
    },
    {
      "children": [
        3,
        5,
        9
      ],
      "matrix": [
        1.0,
        0.0,
        0.0,
        0.0,
        0.0,
        2.220446049250313e-16,
        1.0,
        0.0,
        0.0,
        -1.0,
        2.220446049250313e-16,
        0.0,
        0.0,
        0.0,
        0.0,
        1.0
      ],
      "name": "GLTF_SceneRootNode"
    },
    {
      "children": [
        4
      ],
      "name": "Brake_Pads_0"
    },
    {
      "mesh": 0,
      "name": "Object_4"
    },
    {
      "children": [
        6,
        7,
        8
      ],
      "name": "Brake_Disc_1"
    },
    {
      "mesh": 1,
      "name": "Object_6"
    },
    {
      "mesh": 2,
      "name": "Object_7"
    },
    {
      "mesh": 3,
      "name": "Object_8"
    },
    {
      "children": [
        10,
        11
      ],
      "name": "Brake_Caliper_2"
    },
    {
      "mesh": 4,
      "name": "Object_10"
    },
    {
      "mesh": 5,
      "name": "Object_11"
    }
  ],
  "samplers": [
    {
      "magFilter": 9729,
      "minFilter": 9987,
      "wrapS": 10497,
      "wrapT": 10497
    }
  ],
  "scene": 0,
  "scenes": [
    {
      "name": "Sketchfab_Scene",
      "nodes": [
        0
      ]
    }
  ],
  "textures": [
    {
      "sampler": 0,
      "source": 0
    },
    {
      "sampler": 0,
      "source": 1
    },
    {
      "sampler": 0,
      "source": 2
    },
    {
      "sampler": 0,
      "source": 3
    },
    {
      "sampler": 0,
      "source": 4
    }
  ]
}
