{
  "accessors": [
    {
      "bufferView": 2,
      "componentType": 5126,
      "count": 397,
      "max": [
        0.16496878862380981,
        0.3780471384525299,
        0.3780471384525299
      ],
      "min": [
        -0.14448361098766327,
        -0.3780471384525299,
        -0.3780471384525299
      ],
      "type": "VEC3"
    },
    {
      "bufferView": 2,
      "byteOffset": 4764,
      "componentType": 5126,
      "count": 397,
      "max": [
        1.0,
        0.868536651134491,
        0.9311656951904297
      ],
      "min": [
        -1.0,
        -0.8685367107391357,
        -0.9311655163764954
      ],
      "type": "VEC3"
    },
    {
      "bufferView": 3,
      "componentType": 5126,
      "count": 397,
      "max": [
        0.9297369718551636,
        0.99985271692276,
        0.9878512620925903,
        1.0
      ],
      "min": [
        -0.38610026240348816,
        -0.9998400211334229,
        -0.987851083278656,
        1.0
      ],
      "type": "VEC4"
    },
    {
      "bufferView": 1,
      "componentType": 5126,
      "count": 397,
      "max": [
        0.9887344837188721,
        0.9753742218017578
      ],
      "min": [
        0.045565247535705566,
        0.026009496301412582
      ],
      "type": "VEC2"
    },
    {
      "bufferView": 1,
      "byteOffset": 3176,
      "componentType": 5126,
      "count": 397,
      "max": [
        0.9887344837188721,
        0.9753742218017578
      ],
      "min": [
        0.045565247535705566,
        0.026009496301412582
      ],
      "type": "VEC2"
    },
    {
      "bufferView": 1,
      "byteOffset": 6352,
      "componentType": 5126,
      "count": 397,
      "max": [
        0.9887344837188721,
        0.9753742218017578
      ],
      "min": [
        0.045565247535705566,
        0.026009496301412582
      ],
      "type": "VEC2"
    },
    {
      "bufferView": 0,
      "componentType": 5125,
      "count": 1584,
      "type": "SCALAR"
    },
    {
      "bufferView": 2,
      "byteOffset": 9528,
      "componentType": 5126,
      "count": 5725,
      "max": [
        0.016748808324337006,
        0.30801093578338623,
        0.30803704261779785
      ],
      "min": [
        -0.28401118516921997,
        -0.3081260025501251,
        -0.3078576624393463
      ],
      "type": "VEC3"
    },
    {
      "bufferView": 2,
      "byteOffset": 78228,
      "componentType": 5126,
      "count": 5725,
      "max": [
        1.0,
        0.9999984502792358,
        1.0
      ],
      "min": [
        -1.0,
        -0.9999713897705078,
        -1.0
      ],
      "type": "VEC3"
    },
    {
      "bufferView": 3,
      "byteOffset": 6352,
      "componentType": 5126,
      "count": 5725,
      "max": [
        1.0,
        0.9999104142189026,
        0.9999797940254211,
        1.0
      ],
      "min": [
        -0.9999998807907104,
        -0.9998510479927063,
        -1.0,
        1.0
      ],
      "type": "VEC4"
    },
    {
      "bufferView": 1,
      "byteOffset": 9528,
      "componentType": 5126,
      "count": 5725,
      "max": [
        0.9720697999000549,
        0.972564160823822
      ],
      "min": [
        0.00478698592633009,
        0.004787337500602007
      ],
      "type": "VEC2"
    },
    {
      "bufferView": 1,
      "byteOffset": 55328,
      "componentType": 5126,
      "count": 5725,
      "max": [
        0.9720697999000549,
        0.972564160823822
      ],
      "min": [
        0.00478698592633009,
        0.004787337500602007
      ],
      "type": "VEC2"
    },
    {
      "bufferView": 1,
      "byteOffset": 101128,
      "componentType": 5126,
      "count": 5725,
      "max": [
        0.9720697999000549,
        0.972564160823822
      ],
      "min": [
        0.00478698592633009,
        0.004787337500602007
      ],
      "type": "VEC2"
    },
    {
      "bufferView": 0,
      "byteOffset": 6336,
      "componentType": 5125,
      "count": 18567,
      "type": "SCALAR"
    },
    {
      "bufferView": 2,
      "byteOffset": 146928,
      "componentType": 5126,
      "count": 1166,
      "max": [
        0.05385055020451546,
        0.034123677760362625,
        0.16477081179618835
      ],
      "min": [
        -0.05385055020451546,
        -0.05634046718478203,
        -0.16477081179618835
      ],
      "type": "VEC3"
    },
    {
      "bufferView": 2,
      "byteOffset": 160920,
      "componentType": 5126,
      "count": 1166,
      "max": [
        1.0,
        1.0,
        1.0
      ],
      "min": [
        -1.0,
        -1.0,
        -1.0
      ],
      "type": "VEC3"
    },
    {
      "bufferView": 3,
      "byteOffset": 97952,
      "componentType": 5126,
      "count": 1166,
      "max": [
        1.0,
        1.0,
        0.666049599647522,
        1.0
      ],
      "min": [
        -1.0,
        -1.0,
        -0.6660496592521667,
        -1.0
      ],
      "type": "VEC4"
    },
    {
      "bufferView": 1,
      "byteOffset": 146928,
      "componentType": 5126,
      "count": 1166,
      "max": [
        0.6101346611976624,
        0.972191572189331
      ],
      "min": [
        0.00478698592633009,
        0.005941102746874094
      ],
      "type": "VEC2"
    },
    {
      "bufferView": 1,
      "byteOffset": 156256,
      "componentType": 5126,
      "count": 1166,
      "max": [
        0.6101346611976624,
        0.972191572189331
      ],
      "min": [
        0.00478698592633009,
        0.005941102746874094
      ],
      "type": "VEC2"
    },
    {
      "bufferView": 1,
      "byteOffset": 165584,
      "componentType": 5126,
      "count": 1166,
      "max": [
        0.6101346611976624,
        0.972191572189331
      ],
      "min": [
        0.00478698592633009,
        0.005941102746874094
      ],
      "type": "VEC2"
    },
    {
      "bufferView": 0,
      "byteOffset": 80604,
      "componentType": 5125,
      "count": 3252,
      "type": "SCALAR"
    },
    {
      "bufferView": 2,
      "byteOffset": 174912,
      "componentType": 5126,
      "count": 336,
      "max": [
        -0.024196721613407135,
        0.21720686554908752,
        0.21720686554908752
      ],
      "min": [
        -0.11588174849748611,
        -0.21720708906650543,
        -0.21720698475837708
      ],
      "type": "VEC3"
    },
    {
      "bufferView": 2,
      "byteOffset": 178944,
      "componentType": 5126,
      "count": 336,
      "max": [
        1.0,
        1.0,
        1.0
      ],
      "min": [
        -1.0,
        -1.0,
        -1.0
      ],
      "type": "VEC3"
    },
    {
      "bufferView": 3,
      "byteOffset": 116608,
      "componentType": 5126,
      "count": 336,
      "max": [
        1.0,
        0.9840866327285767,
        0.9807856678962708,
        1.0
      ],
      "min": [
        -1.0,
        -0.9807866215705872,
        -0.19509711861610413,
        1.0
      ],
      "type": "VEC4"
    },
    {
      "bufferView": 1,
      "byteOffset": 174912,
      "componentType": 5126,
      "count": 336,
      "max": [
        0.9984054565429688,
        0.9726872444152832
      ],
      "min": [
        0.0047869873233139515,
        0.004786994308233261
      ],
      "type": "VEC2"
    },
    {
      "bufferView": 1,
      "byteOffset": 177600,
      "componentType": 5126,
      "count": 336,
      "max": [
        0.9984054565429688,
        0.9726872444152832
      ],
      "min": [
        0.0047869873233139515,
        0.004786994308233261
      ],
      "type": "VEC2"
    },
    {
      "bufferView": 1,
      "byteOffset": 180288,
      "componentType": 5126,
      "count": 336,
      "max": [
        0.9984054565429688,
        0.9726872444152832
      ],
      "min": [
        0.0047869873233139515,
        0.004786994308233261
      ],
      "type": "VEC2"
    },
    {
      "bufferView": 0,
      "byteOffset": 93612,
      "componentType": 5125,
      "count": 960,
      "type": "SCALAR"
    }
  ],
  "asset": {
    "extras": {
      "author": "Márcio Meireles (https://sketchfab.com/marciomeireles)",
      "license": "CC-BY-4.0 (http://creativecommons.org/licenses/by/4.0/)",
      "source": "https://sketchfab.com/3d-models/car-wheel-with-brake-disc-low-poly-5b9bb83857674cd5a866f35fbf7fe8d4",
      "title": "Car wheel with brake disc - Low poly"
    },
    "generator": "Sketchfab-15.55.0",
    "version": "2.0"
  },
  "bufferViews": [
    {
      "buffer": 0,
      "byteLength": 97452,
      "name": "floatBufferViews",
      "target": 34963
    },
    {
      "buffer": 0,
      "byteLength": 182976,
      "byteOffset": 97452,
      "byteStride": 8,
      "name": "floatBufferViews",
      "target": 34962
    },
    {
      "buffer": 0,
      "byteLength": 182976,
      "byteOffset": 280428,
      "byteStride": 12,
      "name": "floatBufferViews",
      "target": 34962
    },
    {
      "buffer": 0,
      "byteLength": 121984,
      "byteOffset": 463404,
      "byteStride": 16,
      "name": "floatBufferViews",
      "target": 34962
    }
  ],
  "buffers": [
    {
      "byteLength": 585388,
      "uri": "scene.bin"
    }
  ],
  "images": [
    {
      "uri": "textures/tire-low_baseColor.png"
    },
    {
      "uri": "textures/tire-low_normal.png"
    },
    {
      "uri": "textures/wheel-brake-disc_baseColor.png"
    },
    {
      "uri": "textures/wheel-brake-disc_metallicRoughness.png"
    },
    {
      "uri": "textures/wheel-brake-disc_normal.png"
    }
  ],
  "materials": [
    {
      "doubleSided": true,
      "name": "tire-low",
      "normalTexture": {
        "index": 1
      },
      "pbrMetallicRoughness": {
        "baseColorTexture": {
          "index": 0
        },
        "metallicFactor": 0.0,
        "roughnessFactor": 0.35
      }
    },
    {
      "doubleSided": true,
      "name": "wheel-brake-disc",
      "normalTexture": {
        "index": 4
      },
      "occlusionTexture": {
        "index": 3
      },
      "pbrMetallicRoughness": {
        "baseColorTexture": {
          "index": 2
        },
        "metallicFactor": 0.95,
        "metallicRoughnessTexture": {
          "index": 3
        }
      }
    }
  ],
  "meshes": [
    {
      "name": "tire-low_tire-low_0",
      "primitives": [
        {
          "attributes": {
            "NORMAL": 1,
            "POSITION": 0,
            "TANGENT": 2,
            "TEXCOORD_0": 3,
            "TEXCOORD_1": 4,
            "TEXCOORD_2": 5
          },
          "indices": 6,
          "material": 0,
          "mode": 4
        }
      ]
    },
    {
      "name": "wheel-full_wheel-brake-disc_0",
      "primitives": [
        {
          "attributes": {
            "NORMAL": 8,
            "POSITION": 7,
            "TANGENT": 9,
            "TEXCOORD_0": 10,
            "TEXCOORD_1": 11,
            "TEXCOORD_2": 12
          },
          "indices": 13,
          "material": 1,
          "mode": 4
        }
      ]
    },
    {
      "name": "brake-caliper_wheel-brake-disc_0",
      "primitives": [
        {
          "attributes": {
            "NORMAL": 15,
            "POSITION": 14,
            "TANGENT": 16,
            "TEXCOORD_0": 17,
            "TEXCOORD_1": 18,
            "TEXCOORD_2": 19
          },
          "indices": 20,
          "material": 1,
          "mode": 4
        }
      ]
    },
    {
      "name": "brake-disc_wheel-brake-disc_0",
      "primitives": [
        {
          "attributes": {
            "NORMAL": 22,
            "POSITION": 21,
            "TANGENT": 23,
            "TEXCOORD_0": 24,
            "TEXCOORD_1": 25,
            "TEXCOORD_2": 26
          },
          "indices": 27,
          "material": 1,
          "mode": 4
        }
      ]
    }
  ],
  "nodes": [
    {
      "children": [
        1
      ],
      "matrix": [
        1.0,
        0.0,
        0.0,
        0.0,
        0.0,
        2.220446049250313e-16,
        -1.0,
        0.0,
        0.0,
        1.0,
        2.220446049250313e-16,
        0.0,
        0.0,
        0.0,
        0.0,
        1.0
      ],
      "name": "Sketchfab_model"
    },
    {
      "children": [
        2
      ],
      "matrix": [
        0.009999999776482582,
        0.0,
        0.0,
        0.0,
        0.0,
        0.0,
        0.009999999776482582,
        0.0,
        0.0,
        -0.009999999776482582,
        0.0,
        0.0,
        0.0,
        0.0,
        0.0,
        1.0
      ],
      "name": "e6e1f33a07134043941b52b5b4257757.fbx"
    },
    {
      "children": [
        3,
        5,
        7,
        9
      ],
      "name": "RootNode"
    },
    {
      "children": [
        4
      ],
      "matrix": [
        100.0,
        0.0,
        0.0,
        0.0,
        0.0,
        -1.629206793918314e-05,
        -99.99999999999868,
        0.0,
        0.0,
        99.99999999999868,
        -1.629206793918314e-05,
        0.0,
        1.4901161193847656e-06,
        -3.725290298461914e-07,
        -3.725290298461914e-07,
        1.0
      ],
      "name": "tire-low"
    },
    {
      "mesh": 0,
      "name": "tire-low_tire-low_0"
    },
    {
      "children": [
        6
      ],
      "matrix": [
        100.0,
        0.0,
        0.0,
        0.0,
        0.0,
        -1.629206793918314e-05,
        -99.99999999999868,
        0.0,
        0.0,
        99.99999999999868,
        -1.629206793918314e-05,
        0.0,
        15.001264572143555,
        -3.725290298461914e-07,
        -3.725290298461914e-07,
        1.0
      ],
      "name": "wheel-full"
    },
    {
      "mesh": 1,
      "name": "wheel-full_wheel-brake-disc_0"
    },
    {
      "children": [
        8
      ],
      "matrix": [
        100.0,
        0.0,
        0.0,
        0.0,
        0.0,
        -1.629206793918314e-05,
        -99.99999999999868,
        0.0,
        0.0,
        99.99999999999868,
        -1.629206793918314e-05,
        0.0,
        3.91573166847229,
        0.0,
        -20.53668785095215,
        1.0
      ],
      "name": "brake-caliper"
    },
    {
      "mesh": 2,
      "name": "brake-caliper_wheel-brake-disc_0"
    },
    {
      "children": [
        10
      ],
      "matrix": [
        100.0,
        0.0,
        0.0,
        0.0,
        0.0,
        -1.629206793918314e-05,
        -99.99999999999868,
        0.0,
        0.0,
        99.99999999999868,
        -1.629206793918314e-05,
        0.0,
        13.484796524047852,
        -3.725290298461914e-07,
        -3.725290298461914e-07,
        1.0
      ],
      "name": "brake-disc"
    },
    {
      "mesh": 3,
      "name": "brake-disc_wheel-brake-disc_0"
    }
  ],
  "samplers": [
    {
      "magFilter": 9729,
      "minFilter": 9987,
      "wrapS": 10497,
      "wrapT": 10497
    }
  ],
  "scene": 0,
  "scenes": [
    {
      "name": "Sketchfab_Scene",
      "nodes": [
        0
      ]
    }
  ],
  "textures": [
    {
      "sampler": 0,
      "source": 0
    },
    {
      "sampler": 0,
      "source": 1
    },
    {
      "sampler": 0,
      "source": 2
    },
    {
      "sampler": 0,
      "source": 3
    },
    {
      "sampler": 0,
      "source": 4
    }
  ]
}
